<svg version="1.1" xmlns="http://www.w3.org/2000/svg" viewBox="0 0 184.79793288707737 315.13926605053246" width="184.79793288707737" height="315.13926605053246">
  <!-- svg-source:excalidraw -->

  <g stroke-linecap="round"><g transform="translate(119.69512353576721 11.464156556427497) rotate(0 23.156965410336852 43.42837919354437)"><path d="M-0.81 1.69 C7.13 15.77, 39.66 70.02, 47.12 84.47 M3.95 0.14 C11.75 14.47, 39.77 72.81, 46.04 86.72" stroke="#cccccc" stroke-width="1" fill="none"></path></g><g transform="translate(119.69512353576721 11.464156556427497) rotate(0 23.156965410336852 43.42837919354437)"><path d="M27.19 68.58 C27.16 70.14, 38.77 80.8, 44.02 85.98 M23.22 63.85 C34.44 73.28, 41.83 80.98, 46.9 87.61" stroke="#cccccc" stroke-width="1" fill="none"></path></g><g transform="translate(119.69512353576721 11.464156556427497) rotate(0 23.156965410336852 43.42837919354437)"><path d="M45.77 59.87 C40.49 63.78, 46.85 76.9, 44.02 85.98 M41.79 55.14 C45.96 67.9, 46.37 78.87, 46.9 87.61" stroke="#cccccc" stroke-width="1" fill="none"></path></g></g><mask></mask><g stroke-linecap="round"><g transform="translate(173.6951235357672 215.4641565564275) rotate(0 -24.089237803407002 43.68840845543889)"><path d="M1.1 0.11 C-6.69 15.08, -38.96 74.64, -46.68 89.68 M-1.74 -2.3 C-9.98 11.88, -41.81 70.85, -49.28 85.57" stroke="#cccccc" stroke-width="1" fill="none"></path></g><g transform="translate(173.6951235357672 215.4641565564275) rotate(0 -24.089237803407002 43.68840845543889)"><path d="M-45.07 54.88 C-44.1 66.06, -44.39 73.24, -52.11 86.03 M-45.82 54.74 C-46.19 63.94, -46.41 66.78, -48.89 86.8" stroke="#cccccc" stroke-width="1" fill="none"></path></g><g transform="translate(173.6951235357672 215.4641565564275) rotate(0 -24.089237803407002 43.68840845543889)"><path d="M-26.91 64.45 C-31.44 72.86, -37.24 77.14, -52.11 86.03 M-27.67 64.3 C-31.93 71.61, -36.04 72.4, -48.89 86.8" stroke="#cccccc" stroke-width="1" fill="none"></path></g></g><mask></mask><g stroke-linecap="round"><g transform="translate(63.69512353576721 11.464156556427497) rotate(0 -20.52706854786723 43.956627216041056)"><path d="M0.05 0.65 C-6.23 15.34, -32.38 71.82, -39.26 86.89 M-3.37 -1.46 C-9.81 13.63, -34.37 74.69, -41.1 89.38" stroke="#cccccc" stroke-width="1" fill="none"></path></g><g transform="translate(63.69512353576721 11.464156556427497) rotate(0 -20.52706854786723 43.956627216041056)"><path d="M-38.56 60.47 C-43.16 64.89, -37.6 70.59, -44.42 87.56 M-41.31 60.61 C-38.5 70.18, -42.01 79.81, -42.56 89.39" stroke="#cccccc" stroke-width="1" fill="none"></path></g><g transform="translate(63.69512353576721 11.464156556427497) rotate(0 -20.52706854786723 43.956627216041056)"><path d="M-19.68 68.52 C-28.79 70.98, -27.81 74.73, -44.42 87.56 M-22.43 68.65 C-26.5 75.64, -36.79 82.38, -42.56 89.39" stroke="#cccccc" stroke-width="1" fill="none"></path></g></g><mask></mask><g stroke-linecap="round"><g transform="translate(12.695123535767209 215.4641565564275) rotate(0 22.711571740731586 43.31525680858641)"><path d="M-2.7 -2.71 C5.49 11.62, 39.92 71.72, 48.12 86.87 M1.04 1.99 C8.86 16.52, 36.92 74.53, 45.4 89.34" stroke="#cccccc" stroke-width="1" fill="none"></path></g><g transform="translate(12.695123535767209 215.4641565564275) rotate(0 22.711571740731586 43.31525680858641)"><path d="M19.38 67.85 C26.18 71.26, 33.93 76.81, 48.9 90.62 M21.49 67.55 C31.57 75.49, 37.77 81.97, 45.26 89.07" stroke="#cccccc" stroke-width="1" fill="none"></path></g><g transform="translate(12.695123535767209 215.4641565564275) rotate(0 22.711571740731586 43.31525680858641)"><path d="M37.56 58.34 C39.63 63.91, 42.58 71.97, 48.9 90.62 M39.67 58.05 C44.36 68.83, 44.99 78.22, 45.26 89.07" stroke="#cccccc" stroke-width="1" fill="none"></path></g></g><mask></mask></svg>
