<svg version="1.1" xmlns="http://www.w3.org/2000/svg" viewBox="0 0 455.9717641085704 549.5227863502503" width="455.9717641085704" height="549.5227863502503">
  <!-- svg-source:excalidraw -->

<g stroke-linecap="round"><g transform="translate(119.69512353576721 46.0302806571126) rotate(0 23.156965410336852 43.42837919354437)"><path d="M-0.81 1.69 C7.13 15.77, 39.66 70.02, 47.12 84.47 M3.95 0.14 C11.75 14.47, 39.77 72.81, 46.04 86.72" stroke="#cccccc" stroke-width="1" fill="none"></path></g><g transform="translate(119.69512353576721 46.0302806571126) rotate(0 23.156965410336852 43.42837919354437)"><path d="M27.19 68.58 C27.16 70.14, 38.77 80.8, 44.02 85.98 M23.22 63.85 C34.44 73.28, 41.83 80.98, 46.9 87.61" stroke="#cccccc" stroke-width="1" fill="none"></path></g><g transform="translate(119.69512353576721 46.0302806571126) rotate(0 23.156965410336852 43.42837919354437)"><path d="M45.77 59.87 C40.49 63.78, 46.85 76.9, 44.02 85.98 M41.79 55.14 C45.96 67.9, 46.37 78.87, 46.9 87.61" stroke="#cccccc" stroke-width="1" fill="none"></path></g></g><mask></mask><g stroke-linecap="round"><g transform="translate(173.6951235357672 250.0302806571126) rotate(0 -24.089237803407002 43.68840845543889)"><path d="M1.1 0.11 C-6.69 15.08, -38.96 74.64, -46.68 89.68 M-1.74 -2.3 C-9.98 11.88, -41.81 70.85, -49.28 85.57" stroke="#cccccc" stroke-width="1" fill="none"></path></g><g transform="translate(173.6951235357672 250.0302806571126) rotate(0 -24.089237803407002 43.68840845543889)"><path d="M-45.07 54.88 C-44.1 66.06, -44.39 73.24, -52.11 86.03 M-45.82 54.74 C-46.19 63.94, -46.41 66.78, -48.89 86.8" stroke="#cccccc" stroke-width="1" fill="none"></path></g><g transform="translate(173.6951235357672 250.0302806571126) rotate(0 -24.089237803407002 43.68840845543889)"><path d="M-26.91 64.45 C-31.44 72.86, -37.24 77.14, -52.11 86.03 M-27.67 64.3 C-31.93 71.61, -36.04 72.4, -48.89 86.8" stroke="#cccccc" stroke-width="1" fill="none"></path></g></g><mask></mask><g stroke-linecap="round"><g transform="translate(63.69512353576721 46.0302806571126) rotate(0 -20.52706854786723 43.956627216041056)"><path d="M0.05 0.65 C-6.23 15.34, -32.38 71.82, -39.26 86.89 M-3.37 -1.46 C-9.81 13.63, -34.37 74.69, -41.1 89.38" stroke="#cccccc" stroke-width="1" fill="none"></path></g><g transform="translate(63.69512353576721 46.0302806571126) rotate(0 -20.52706854786723 43.956627216041056)"><path d="M-38.56 60.47 C-43.16 64.89, -37.6 70.59, -44.42 87.56 M-41.31 60.61 C-38.5 70.18, -42.01 79.81, -42.56 89.39" stroke="#cccccc" stroke-width="1" fill="none"></path></g><g transform="translate(63.69512353576721 46.0302806571126) rotate(0 -20.52706854786723 43.956627216041056)"><path d="M-19.68 68.52 C-28.79 70.98, -27.81 74.73, -44.42 87.56 M-22.43 68.65 C-26.5 75.64, -36.79 82.38, -42.56 89.39" stroke="#cccccc" stroke-width="1" fill="none"></path></g></g><mask></mask><g stroke-linecap="round"><g transform="translate(12.695123535767209 250.0302806571126) rotate(0 22.711571740731586 43.31525680858641)"><path d="M-2.7 -2.71 C5.49 11.62, 39.92 71.72, 48.12 86.87 M1.04 1.99 C8.86 16.52, 36.92 74.53, 45.4 89.34" stroke="#cccccc" stroke-width="1" fill="none"></path></g><g transform="translate(12.695123535767209 250.0302806571126) rotate(0 22.711571740731586 43.31525680858641)"><path d="M19.38 67.85 C26.18 71.26, 33.93 76.81, 48.9 90.62 M21.49 67.55 C31.57 75.49, 37.77 81.97, 45.26 89.07" stroke="#cccccc" stroke-width="1" fill="none"></path></g><g transform="translate(12.695123535767209 250.0302806571126) rotate(0 22.711571740731586 43.31525680858641)"><path d="M37.56 58.34 C39.63 63.91, 42.58 71.97, 48.9 90.62 M39.67 58.05 C44.36 68.83, 44.99 78.22, 45.26 89.07" stroke="#cccccc" stroke-width="1" fill="none"></path></g></g><mask></mask><g stroke-linecap="round"><g transform="translate(109.69512353576721 449.0302806571126) rotate(0 23.56944752607494 43.898466968238324)"><path d="M0.55 0.08 C9.13 14.38, 41.75 72.78, 49.73 87.39 M-2.59 -2.34 C5.83 12.15, 39.73 74.72, 47.89 90.14" stroke="#cccccc" stroke-width="1" fill="none"></path></g><g transform="translate(109.69512353576721 449.0302806571126) rotate(0 23.56944752607494 43.898466968238324)"><path d="M25.62 71.2 C28.78 74.07, 34.64 79.45, 50.08 90.23 M26.87 71.58 C30.73 75.84, 33.76 78.89, 49.09 89.61" stroke="#cccccc" stroke-width="1" fill="none"></path></g><g transform="translate(109.69512353576721 449.0302806571126) rotate(0 23.56944752607494 43.898466968238324)"><path d="M43.7 61.49 C42.65 66.75, 44.19 74.45, 50.08 90.23 M44.95 61.87 C44.97 68.41, 44.2 73.49, 49.09 89.61" stroke="#cccccc" stroke-width="1" fill="none"></path></g></g><mask></mask><g stroke-linecap="round"><g transform="translate(278.6951235357672 447.0302806571126) rotate(0 -26.371853751800955 46.31036365956072)"><path d="M-2.48 1.68 C-11.94 16.87, -45.67 75.04, -54.11 89.97 M1.37 0.13 C-7.46 15.72, -39.37 76.86, -48.85 92.49" stroke="#cccccc" stroke-width="1" fill="none"></path></g><g transform="translate(278.6951235357672 447.0302806571126) rotate(0 -26.371853751800955 46.31036365956072)"><path d="M-41.65 59.86 C-49.1 72.87, -49.18 87.59, -45.28 92.19 M-42.47 62.17 C-44.8 73.32, -49.01 84.74, -49.19 91.68" stroke="#cccccc" stroke-width="1" fill="none"></path></g><g transform="translate(278.6951235357672 447.0302806571126) rotate(0 -26.371853751800955 46.31036365956072)"><path d="M-23.74 69.88 C-38.16 78.62, -45.31 89.39, -45.28 92.19 M-24.56 72.18 C-33.6 79.4, -44.47 87.09, -49.19 91.68" stroke="#cccccc" stroke-width="1" fill="none"></path></g></g><mask></mask><g stroke-linecap="round"><g transform="translate(150.6951235357672 9.030280657112598) rotate(0 146.90729574115662 162.94191127747297)"><path d="M-1.46 2.23 C46.94 29.2, 262.04 106.41, 291.03 159.68 C320.01 212.96, 191.97 294.49, 172.44 321.87 M2.94 0.97 C50.91 28.5, 259.64 108.6, 288.8 162.6 C317.96 216.59, 197.05 298.84, 177.89 324.91" stroke="#cccccc" stroke-width="1" fill="none"></path></g><g transform="translate(150.6951235357672 9.030280657112598) rotate(0 146.90729574115662 162.94191127747297)"><path d="M194.32 298.04 C184.57 302.89, 182 313.6, 180.74 326.18 M190.52 299.48 C185.57 308.84, 178.92 317.93, 179.31 325.06" stroke="#cccccc" stroke-width="1" fill="none"></path></g><g transform="translate(150.6951235357672 9.030280657112598) rotate(0 146.90729574115662 162.94191127747297)"><path d="M208.52 312.85 C194.42 312.78, 187.27 318.71, 180.74 326.18 M204.73 314.29 C194.64 318.25, 182.62 321.75, 179.31 325.06" stroke="#cccccc" stroke-width="1" fill="none"></path></g></g><mask></mask></svg>
