<svg version="1.1" xmlns="http://www.w3.org/2000/svg" viewBox="0 0 539.4518018193544 340.4855575629324" width="539.4518018193544" height="340.4855575629324">
  <!-- svg-source:excalidraw -->
  
  <defs>
    <style class="style-fonts">
      @font-face {
        font-family: "Virgil";
        src: url("https://excalidraw.com/Virgil.woff2");
      }
      @font-face {
        font-family: "Cascadia";
        src: url("https://excalidraw.com/Cascadia.woff2");
      }
    </style>
    
  </defs>
  <g stroke-linecap="round"><g transform="translate(296.283050102368 30.70299683928488) rotate(0 23.156965410336852 43.42837919354437)"><path d="M-0.81 1.69 C7.13 15.77, 39.66 70.02, 47.12 84.47 M3.95 0.14 C11.75 14.47, 39.77 72.81, 46.04 86.72" stroke="#cccccc" stroke-width="1" fill="none"></path></g><g transform="translate(296.283050102368 30.70299683928488) rotate(0 23.156965410336852 43.42837919354437)"><path d="M27.19 68.58 C27.16 70.14, 38.77 80.8, 44.02 85.98 M23.22 63.85 C34.44 73.28, 41.83 80.98, 46.9 87.61" stroke="#cccccc" stroke-width="1" fill="none"></path></g><g transform="translate(296.283050102368 30.70299683928488) rotate(0 23.156965410336852 43.42837919354437)"><path d="M45.77 59.87 C40.49 63.78, 46.85 76.9, 44.02 85.98 M41.79 55.14 C45.96 67.9, 46.37 78.87, 46.9 87.61" stroke="#cccccc" stroke-width="1" fill="none"></path></g></g><mask></mask><g stroke-linecap="round"><g transform="translate(350.283050102368 234.70299683928488) rotate(0 -20.089237803407002 36.18840845543889)"><path d="M1.1 0.11 C-5.36 12.58, -32.29 62.14, -38.68 74.68 M-1.74 -2.3 C-8.65 9.38, -35.15 58.35, -41.28 70.57" stroke="#cccccc" stroke-width="1" fill="none"></path></g><g transform="translate(350.283050102368 234.70299683928488) rotate(0 -20.089237803407002 36.18840845543889)"><path d="M-37.1 39.88 C-36.12 51.06, -36.4 58.23, -44.11 71.03 M-37.85 39.74 C-38.22 48.93, -38.43 51.77, -40.89 71.8" stroke="#cccccc" stroke-width="1" fill="none"></path></g><g transform="translate(350.283050102368 234.70299683928488) rotate(0 -20.089237803407002 36.18840845543889)"><path d="M-18.93 49.42 C-23.45 57.85, -29.25 62.13, -44.11 71.03 M-19.69 49.28 C-23.95 56.59, -28.05 57.39, -40.89 71.8" stroke="#cccccc" stroke-width="1" fill="none"></path></g></g><mask></mask><g stroke-linecap="round"><g transform="translate(240.283050102368 30.70299683928488) rotate(0 -20.52706854786723 43.956627216041056)"><path d="M0.05 0.65 C-6.23 15.34, -32.38 71.82, -39.26 86.89 M-3.37 -1.46 C-9.81 13.63, -34.37 74.69, -41.1 89.38" stroke="#cccccc" stroke-width="1" fill="none"></path></g><g transform="translate(240.283050102368 30.70299683928488) rotate(0 -20.52706854786723 43.956627216041056)"><path d="M-38.56 60.47 C-43.16 64.89, -37.6 70.59, -44.42 87.56 M-41.31 60.61 C-38.5 70.18, -42.01 79.81, -42.56 89.39" stroke="#cccccc" stroke-width="1" fill="none"></path></g><g transform="translate(240.283050102368 30.70299683928488) rotate(0 -20.52706854786723 43.956627216041056)"><path d="M-19.68 68.52 C-28.79 70.98, -27.81 74.73, -44.42 87.56 M-22.43 68.65 C-26.5 75.64, -36.79 82.38, -42.56 89.39" stroke="#cccccc" stroke-width="1" fill="none"></path></g></g><mask></mask><g stroke-linecap="round"><g transform="translate(189.283050102368 234.70299683928488) rotate(0 18.711571740731586 33.31525680858641)"><path d="M-2.7 -2.71 C4.16 8.28, 33.26 55.05, 40.12 66.87 M1.04 1.99 C7.53 13.19, 30.25 57.86, 37.4 69.34" stroke="#cccccc" stroke-width="1" fill="none"></path></g><g transform="translate(189.283050102368 234.70299683928488) rotate(0 18.711571740731586 33.31525680858641)"><path d="M10.82 48.48 C17.76 51.73, 25.66 57.12, 40.9 70.62 M12.93 48.18 C23.17 55.93, 29.54 62.22, 37.26 69.07" stroke="#cccccc" stroke-width="1" fill="none"></path></g><g transform="translate(189.283050102368 234.70299683928488) rotate(0 18.711571740731586 33.31525680858641)"><path d="M28.73 38.47 C31.02 44.01, 34.19 52.05, 40.9 70.62 M30.84 38.17 C35.78 48.92, 36.66 58.28, 37.26 69.07" stroke="#cccccc" stroke-width="1" fill="none"></path></g></g><mask></mask><g stroke-linecap="round"><g transform="translate(219.283050102368 9.702996839284879) rotate(0 -103.45383687056602 59.371445509195325)"><path d="M2.38 1.79 C-32.93 20.83, -174.79 96.34, -209.28 116.29 M0.22 0.3 C-34.46 19.39, -169.9 98.95, -204.12 118.45" stroke="#cccccc" stroke-width="1" fill="none"></path></g><g transform="translate(219.283050102368 9.702996839284879) rotate(0 -103.45383687056602 59.371445509195325)"><path d="M-182.31 92.18 C-195.95 108.21, -196.1 113.44, -203.86 117.36 M-184.49 94.93 C-191.26 105.09, -200.06 111.63, -204.43 118.76" stroke="#cccccc" stroke-width="1" fill="none"></path></g><g transform="translate(219.283050102368 9.702996839284879) rotate(0 -103.45383687056602 59.371445509195325)"><path d="M-172.02 109.93 C-189.96 119.18, -194.13 117.45, -203.86 117.36 M-174.2 112.68 C-184.8 116.2, -197.35 116.28, -204.43 118.76" stroke="#cccccc" stroke-width="1" fill="none"></path></g></g><mask></mask><g stroke-linecap="round"><g transform="translate(318.283050102368 15.702996839284879) rotate(0 105.36072096619756 57.841759321950406)"><path d="M1.94 1.13 C37.29 20.51, 177.08 97.58, 211.17 116.41 M-0.45 -0.73 C34.8 17.81, 174.7 92.58, 210.11 112.17" stroke="#cccccc" stroke-width="1" fill="none"></path></g><g transform="translate(318.283050102368 15.702996839284879) rotate(0 105.36072096619756 57.841759321950406)"><path d="M182.04 110.85 C190.4 104.95, 195.1 113.7, 213.88 112.77 M179.89 108.88 C186.67 110.2, 190.8 111.1, 209.52 113.82" stroke="#cccccc" stroke-width="1" fill="none"></path></g><g transform="translate(318.283050102368 15.702996839284879) rotate(0 105.36072096619756 57.841759321950406)"><path d="M191.83 92.81 C197.58 91.87, 199.66 105.44, 213.88 112.77 M189.67 90.84 C194.42 95.84, 196.55 100.44, 209.52 113.82" stroke="#cccccc" stroke-width="1" fill="none"></path></g></g><mask></mask><g stroke-linecap="round"><g transform="translate(17.28305010236801 219.70299683928488) rotate(0 94.29447603732346 51.19279764145614)"><path d="M-0.26 2.24 C31.1 18.59, 155.73 81.48, 187.08 97.85 M-3.84 0.98 C28.5 17.83, 160.9 85.52, 192.43 101.4" stroke="#cccccc" stroke-width="1" fill="none"></path></g><g transform="translate(17.28305010236801 219.70299683928488) rotate(0 94.29447603732346 51.19279764145614)"><path d="M165.85 95.03 C170.23 97.08, 181.76 103.07, 196.34 105.05 M162.41 97.8 C174.15 100.93, 184.94 102.23, 192.81 103.32" stroke="#cccccc" stroke-width="1" fill="none"></path></g><g transform="translate(17.28305010236801 219.70299683928488) rotate(0 94.29447603732346 51.19279764145614)"><path d="M175.15 76.73 C177.06 83.55, 186.16 94.32, 196.34 105.05 M171.71 79.51 C179.9 89.24, 187.3 97.22, 192.81 103.32" stroke="#cccccc" stroke-width="1" fill="none"></path></g></g><mask></mask><g stroke-linecap="round"><g transform="translate(529.283050102368 223.70299683928488) rotate(0 -98.47921441759917 53.902194947265116)"><path d="M0.09 2.26 C-32.11 19.98, -162.88 89.51, -195.23 106.78 M-3.31 1.02 C-35.63 17.9, -165.14 86.1, -197.04 102.74" stroke="#cccccc" stroke-width="1" fill="none"></path></g><g transform="translate(529.283050102368 223.70299683928488) rotate(0 -98.47921441759917 53.902194947265116)"><path d="M-173.61 81.67 C-178.81 88.45, -184.64 89.62, -196.78 105.87 M-176.58 82.44 C-184.81 90.96, -192.94 98.36, -197.07 101.49" stroke="#cccccc" stroke-width="1" fill="none"></path></g><g transform="translate(529.283050102368 223.70299683928488) rotate(0 -98.47921441759917 53.902194947265116)"><path d="M-164.08 99.84 C-171.5 102.5, -179.5 99.55, -196.78 105.87 M-167.05 100.61 C-179.07 102.32, -190.81 102.85, -197.07 101.49" stroke="#cccccc" stroke-width="1" fill="none"></path></g></g><mask></mask></svg>